<?xml version="1.0" encoding="UTF-8" standalone="no"?>
<svg
   xmlns:dc="http://purl.org/dc/elements/1.1/"
   xmlns:cc="http://creativecommons.org/ns#"
   xmlns:rdf="http://www.w3.org/1999/02/22-rdf-syntax-ns#"
   xmlns:svg="http://www.w3.org/2000/svg"
   xmlns="http://www.w3.org/2000/svg"
   xmlns:sodipodi="http://sodipodi.sourceforge.net/DTD/sodipodi-0.dtd"
   xmlns:inkscape="http://www.inkscape.org/namespaces/inkscape"
   inkscape:export-ydpi="96"
   inkscape:export-xdpi="96"
   inkscape:export-filename="/home/pvl/workspace/drawing.png"
   sodipodi:docname="drawing.svg"
   inkscape:version="1.0 (5b275a35d9, 2020-05-03)"
   id="svg8"
   version="1.1"
   viewBox="0 0 66.145833 66.145833"
   height="250"
   width="250">
  <defs
     id="defs2" />
  <sodipodi:namedview
     units="px"
     inkscape:window-maximized="0"
     inkscape:window-y="62"
     inkscape:window-x="164"
     inkscape:window-height="831"
     inkscape:window-width="1615"
     showgrid="false"
     inkscape:document-rotation="0"
     inkscape:current-layer="svg8"
     inkscape:document-units="mm"
     inkscape:cy="121.56166"
     inkscape:cx="86.127443"
     inkscape:zoom="1.4"
     inkscape:pageshadow="2"
     inkscape:pageopacity="0.0"
     borderopacity="1.0"
     bordercolor="#666666"
     pagecolor="#ffffff"
     id="base" />
  <metadata
     id="metadata28">
    <rdf:RDF>
      <cc:Work
         rdf:about="">
        <dc:title></dc:title>
      </cc:Work>
    </rdf:RDF>
  </metadata>
  <g
     style="fill:#5b10ff;fill-opacity:1"
     transform="matrix(0.26458333,0,0,0.26458333,12.435364,23.547917)"
     fill="currentColor"
     fill-rule="evenodd"
     id="g38">
    <path
       style="fill:#5b10ff;fill-opacity:1"
       d="M 43.9804,62.836 V 9.164 c 11.554,3.452 20,14.176 20,26.836 0,12.66 -8.446,23.386 -20,26.836 M 35.9804,0 v 30.342 l -4.57,-4.57 -0.584,-11.406 4.766,-14.346 c -3.056,0.032 -6.008,0.468 -8.834,1.218 l -2.306,6.934 -6.536,-3.278 c -2.586,1.506 -4.978,3.308 -7.104,5.39 l 12.106,6.066 0.354,6.942 -6.94,-0.356 -6.068,-12.104 c -2.08,2.126 -3.884,4.516 -5.39,7.104 l 3.28,6.538 -6.938,2.304 c -0.748,2.826 -1.184,5.778 -1.216,8.834 l 14.348,-4.766 11.406,0.582 4.57,4.572 -4.57,4.572 -11.406,0.582 L 4e-4,36.388 c 0.032,3.056 0.468,6.008 1.216,8.834 l 6.938,2.304 -3.28,6.538 c 1.506,2.588 3.31,4.978 5.39,7.104 l 6.068,-12.104 6.94,-0.356 -0.354,6.94 -12.106,6.068 c 2.126,2.08 4.518,3.882 7.104,5.39 l 6.536,-3.278 2.306,6.934 c 2.826,0.748 5.778,1.186 8.834,1.218 l -4.766,-14.346 0.584,-11.406 4.57,-4.57 V 72 c 19.882,0 36,-16.118 36,-36 0,-19.882 -16.118,-36 -36,-36"
       id="path30" />
    <path
       style="fill:#5b10ff;fill-opacity:1"
       d="m 148,66 h 8 V 6 h -8 z"
       id="path32" />
    <path
       style="fill:#5b10ff;fill-opacity:1"
       d="m 114,66.0002 h 8 v -26 h 14 v -8 h -14 v -18 h 18 v -8 h -26 z"
       id="path34" />
    <path
       style="fill:#5b10ff;fill-opacity:1"
       d="m 80,66.0002 h 26 V 58 H 88 V 40.0002 h 14 v -8 H 88 v -18 h 18 v -8 H 80 Z"
       id="path36" />
  </g>
</svg>
